PathFileType	4	(X/Y/Z)	Patient4_TMGait_0pt2_02_left_17.trc.trc
DataRate	CameraRate	NumFrames	NumMarkers	Units	OrigDataRate	OrigDataStartFrame	OrigNumFrames
45.454545454545	45.454545454545	5	33	mm	45.454545454545	124	       141
Frame#	Time	R.Midfoot.Superior			Sacral			L.Shoulder			Chest			R.Shoulder			Neck			R.ASIS			L.ASIS			R.Thigh.Superior			R.Thigh.Lateral			R.Thigh.Inferior			R.Patella			L.Thigh.Superior			L.Thigh.Lateral			L.Thigh.Inferior			L.Patella			L.Shank.Superior			L.Shank.Lateral			L.Shank.Inferior			R.Shank.Superior			R.Shank.Lateral			R.Shank.Inferior			R.Heel			R.Midfoot.Lateral			R.Toe			L.Heel			L.Midfoot.Lateral			L.Midfoot.Superior			L.Toe			L.Elbow			L.Wrist			R.Elbow			R.Wrist			
		X1	Y1	Z1	X2	Y2	Z2	X3	Y3	Z3	X4	Y4	Z4	X5	Y5	Z5	X6	Y6	Z6	X7	Y7	Z7	X8	Y8	Z8	X9	Y9	Z9	X10	Y10	Z10	X11	Y11	Z11	X12	Y12	Z12	X13	Y13	Z13	X14	Y14	Z14	X15	Y15	Z15	X16	Y16	Z16	X17	Y17	Z17	X18	Y18	Z18	X19	Y19	Z19	X20	Y20	Z20	X21	Y21	Z21	X22	Y22	Z22	X23	Y23	Z23	X24	Y24	Z24	X25	Y25	Z25	X26	Y26	Z26	X27	Y27	Z27	X28	Y28	Z28	X29	Y29	Z29	X30	Y30	Z30	X31	Y31	Z31	X32	Y32	Z32	X33	Y33	Z33	

124	41.486000000000	1021.862091455968	95.874271308684	604.572723885120	902.917448006214	1005.564213646301	570.223721319742	1019.793346419773	1430.999286919638	345.320679399014	1167.032330956408	1361.366415671016	467.087579832655	1141.924737496722	1439.715859407529	653.784824659998	1047.897084602200	1491.973303372162	498.692081152734	1151.039375881509	933.173797146422	624.519236290824	1070.003012737107	960.451233548032	361.702256341661	1152.365231920324	722.871230856975	588.881667957558	1070.362075315156	620.722208532152	666.028289281559	1118.064532590249	561.986073274589	572.445852964894	1103.951523518997	474.782295475252	579.457483573799	1141.712284620406	765.043948273804	377.298614340127	1069.289218358556	638.888912323898	312.220933392759	1174.119540467737	575.827531755959	361.077798345593	1190.535279106775	511.971019022973	358.134208523131	1176.867328970768	441.276017068263	344.881466292545	1109.090514480922	312.416120073726	292.961465187456	1200.795256182681	211.920084178091	339.089474108984	1064.428836125427	389.953903080690	592.196289791594	988.286664810387	295.883777798068	663.833375634370	1004.950290044225	198.437886174313	595.652348299624	847.933219564262	43.534879022997	580.644674329145	935.492626672165	36.641634366387	649.940959742849	1142.873508977055	42.754233807198	626.201914039986	1116.835575020351	36.201162476752	373.757462855078	1190.021259203916	39.289834247389	292.938755721676	1263.181696902045	114.174727013518	315.000730405758	1395.747990460954	80.850172404720	286.871802407009	850.167455825839	1117.715992223308	292.908268290147	795.583955764400	867.489913615327	354.128301215800	1401.257648255363	1243.929712229533	734.454562037331	1595.682854678754	1384.475600994684	641.102997616153	
125	41.508000000000	1017.449609125649	95.854870153621	604.440671089088	904.623945983608	1004.527965143793	566.097092369545	1020.138232991889	1429.689439610651	340.108192221105	1167.641632056246	1360.764366041952	461.995869178968	1142.231999393969	1439.228733277032	648.550657480162	1048.054450494516	1491.101578088845	493.394231414881	1152.793014186460	932.814216951398	620.568100381838	1071.647893435120	959.100016808084	357.813018739331	1152.648226213052	721.769149341094	585.965416370503	1069.433731292865	620.449175499139	663.557004587914	1116.390032003190	560.934063451762	570.388330773125	1101.239900015558	473.983210291593	577.662687672128	1143.031171002822	762.933810335113	373.543521899797	1068.462809127489	636.787118712537	310.152503223406	1173.287413981621	573.609159250706	358.382341115362	1188.144584168845	509.582048404708	356.259648551481	1175.073110972831	438.877360482240	343.256396179071	1106.999093447559	310.079668598467	292.457867639628	1198.344181001550	209.903168483329	339.198185191673	1061.427087840658	389.381475844691	590.734847595268	984.797330329206	295.974049398918	662.855178377336	1001.085221709846	198.177985656258	595.107057809992	843.527692914300	43.431838545191	580.620468666035	931.078579956461	36.579984166817	649.930961522109	1138.459442389142	42.840801526222	626.206680968774	1113.246203564364	36.303342296497	375.126681770257	1186.124713266864	38.185750371014	293.951546729329	1260.403217214462	111.648824208140	315.946749264446	1392.252964983394	76.035414712348	287.522010534938	853.370670343416	1114.693070008231	287.329955133371	800.277041033916	863.908384613292	347.378175713045	1402.736695633111	1245.994731086241	728.552946177422	1593.018615568948	1391.144985086134	634.188785577116	
126	41.530000000000	1013.073863435372	95.847188489950	604.256694265048	906.433433311340	1003.559151288400	561.653731569705	1020.619008079020	1428.335982789075	334.549795250145	1168.358864827918	1360.219303195900	456.646630748375	1142.566043281203	1438.888929272242	643.031775232971	1048.253274462737	1490.272257797584	487.723117611984	1154.567784464402	932.481024885877	616.445253248290	1073.580240728674	957.952280477555	353.706213846381	1153.030766704889	720.662929396703	582.875985553469	1068.627634551000	620.156183973971	660.837282899418	1114.946428711575	559.885813723324	568.112510343807	1098.835971628546	473.143896386741	575.646754922936	1145.194933333827	761.547454307993	370.008555837458	1069.346578975292	635.346418963593	307.763554169063	1174.009299802244	572.099574173647	355.751771160771	1187.484885004766	507.693485004528	354.329684354306	1174.689689191435	436.819737231458	341.535324768062	1105.891455833750	308.419867542888	291.397260091404	1196.111796986647	208.041271432072	339.073615936023	1058.622752387499	388.783250528747	589.067746466832	981.440336046716	296.135720064881	661.705000176637	997.321018032975	197.939573644021	594.451059126518	839.143525443913	43.384722309825	580.564059165525	926.687156997374	36.565522556661	649.892236833922	1134.061729606047	42.912892655244	626.207033099841	1108.863171455975	36.693938150040	375.992798608127	1181.560101990114	37.269753302618	294.536222536566	1257.174313821093	109.169144508604	316.609107416077	1388.299039688486	70.979241052403	288.011030010707	857.054644269482	1111.480384692484	280.854445010809	806.002076242348	859.948644658750	339.228257275073	1403.812301601986	1247.398960290048	722.905705329138	1590.936002873613	1395.791342979228	627.581261835112	
127	41.552000000000	1008.745775203724	95.865779402243	604.026788591097	908.273174328124	1002.736100542536	556.892289407704	1021.248357176809	1427.023061933022	328.732739654414	1169.184229118107	1359.769056232668	451.115754955602	1142.940341519571	1438.728265181922	637.301840117588	1048.515276182481	1489.542021623304	481.772463861822	1156.278544361429	932.200394430508	612.172550917353	1075.756468372808	957.073777299727	349.388788442804	1153.398001675181	719.595495848025	579.630579705102	1067.846904150589	619.893420578905	657.902708063885	1113.652068889132	558.884361024250	565.650686864141	1096.671191307091	472.306539057130	573.453111942714	1148.066429469885	760.882067220527	366.661434469915	1071.741871005102	634.537679001379	305.038747925538	1176.088458818021	571.247476699412	353.157051581397	1188.400504244129	506.308924771921	352.361179254290	1175.589134447989	435.129164603394	339.756900862703	1105.783148791375	307.373324477046	289.810732685461	1194.220973789221	206.373645412528	338.773855330717	1055.968770922512	388.204092458247	587.232711546885	978.172879165022	296.400227570757	660.398329283368	993.638478458755	197.759298474730	593.695419439100	834.779337040074	43.443468206068	580.471124733307	922.317272550554	36.632401378008	649.820011677051	1129.674934352658	42.957534409922	626.202851406008	1104.085182411710	37.204665186843	376.400744714741	1176.712502110365	36.529560257344	294.742407770800	1253.713415098360	106.890684654587	317.021146002358	1384.169765611323	66.141925479402	288.361563399829	861.135342099083	1108.254389800428	273.574925290210	812.672404016479	855.812097969209	329.799624334870	1404.591998780202	1248.274992772133	717.459889094616	1589.575302997867	1398.652082557893	621.219245832850	
128	41.574000000000	1004.476740752281	95.928658664104	603.763622939186	910.066529772036	1002.115000656874	551.801759375197	1022.049381154063	1425.820900957418	322.733854297512	1170.114910125019	1359.440391392815	445.483869658392	1143.343687380408	1438.759085354259	631.439381406598	1048.858013791394	1488.954669365329	475.630181549128	1157.843112761887	931.997619233297	607.779579454600	1078.135246138877	956.493577357237	344.874850273158	1153.663734313892	718.613872230157	576.259285056009	1067.017336549353	619.711647441198	654.793318514482	1112.454334985825	557.973142848797	563.046128321368	1094.705005301491	471.508586051027	571.134362928292	1151.456659437486	760.851645636915	363.445881128282	1075.318099945385	634.262629009815	302.003391693117	1179.213782618958	570.938674520421	350.583225011926	1190.601315764048	505.370906857417	350.384446109417	1177.511866669013	433.782260256512	337.968353680150	1106.530645527611	306.837861872454	287.805069073271	1192.663336922224	204.918989982356	338.378305918847	1053.441069523268	387.687838902342	585.274636604966	974.970239444909	296.800668431965	658.956882993554	990.025831623733	197.675419669232	592.857510104262	830.432928742773	43.674751985570	580.340517859009	917.965766090956	36.822242814584	649.710217611461	1125.290644694042	42.956307734809	626.195526360290	1099.185025091792	37.711731541148	376.445448294940	1171.828527208189	35.960809588750	294.659461882525	1250.130513719566	104.929850830952	317.247337539118	1380.016384846183	61.879152955876	288.605655709686	865.571551518294	1105.154409105194	265.590557384167	820.236894322766	851.674712790726	319.234631581647	1405.129861800055	1248.719180967098	712.165204225736	1588.992099536847	1399.908305052761	615.067271098267	
